<?xml version="1.0" encoding="UTF-8"?>
<svg xmlns="http://www.w3.org/2000/svg" xmlns:xlink="http://www.w3.org/1999/xlink" width="94px" height="94px" viewBox="0 0 94 94" version="1.1">
<g id="surface1">
<path style=" stroke:none;fill-rule:nonzero;fill:rgb(0%,60.784316%,73.333335%);fill-opacity:1;" d="M 94 47 C 94 65.785156 82.980469 81.992188 67.054688 89.519531 C 63.800781 91.054688 60.347656 92.230469 56.738281 92.988281 C 53.59375 93.648438 50.335938 94 47 94 C 44.457031 94 41.957031 93.796875 39.523438 93.40625 C 37.347656 93.058594 35.222656 92.5625 33.160156 91.925781 C 25.0625 89.4375 17.898438 84.8125 12.320312 78.71875 C 9.910156 76.09375 7.800781 73.1875 6.042969 70.066406 C 2.191406 63.25 0 55.382812 0 47 C 0 21.039062 21.046875 0 47 0 C 72.953125 0 94 21.039062 94 47 Z M 94 47 "/>
<path style=" stroke:none;fill-rule:nonzero;fill:rgb(100%,100%,100%);fill-opacity:1;" d="M 67.054688 89.519531 C 63.800781 91.054688 60.347656 92.230469 56.738281 92.988281 L 51.0625 80.234375 L 56.871094 67.386719 Z M 67.054688 89.519531 "/>
<path style=" stroke:none;fill-rule:nonzero;fill:rgb(100%,100%,100%);fill-opacity:1;" d="M 74.46875 28.675781 L 74.46875 31.230469 L 70.859375 31.230469 C 69.1875 31.230469 67.519531 32.640625 65.757812 35.277344 C 64.613281 37.035156 63.820312 38.882812 63.648438 39.234375 L 39.523438 93.40625 C 37.347656 93.058594 35.222656 92.5625 33.160156 91.925781 L 44.550781 66.511719 L 44.550781 66.421875 L 31.4375 37.125 L 31.171875 36.597656 L 31.171875 37.125 L 12.320312 78.71875 C 9.910156 76.09375 7.800781 73.1875 6.042969 70.066406 L 28.617188 22.339844 L 36.011719 22.339844 L 50.269531 53.484375 L 50.359375 53.753906 L 57.574219 37.214844 C 58.363281 35.363281 58.453125 33.867188 57.746094 32.8125 C 56.871094 31.40625 54.933594 31.230469 54.40625 31.230469 L 49.386719 31.230469 L 49.386719 28.675781 L 56.957031 28.675781 L 56.957031 28.589844 C 56.957031 28.589844 56.957031 28.0625 57.21875 27.269531 C 57.21875 27.183594 58.453125 20.9375 64.347656 19.882812 C 67.167969 19.355469 68.222656 19 68.929688 17.765625 C 69.011719 18.558594 68.839844 20.320312 66.8125 21.464844 L 66.285156 21.722656 L 66.902344 21.640625 C 68.660156 21.464844 70.597656 20.320312 71.566406 18.910156 C 72.269531 17.945312 72.535156 16.800781 72.449219 15.65625 C 72.796875 16.273438 73.238281 17.238281 73.503906 18.382812 C 74.117188 20.847656 73.589844 22.695312 72.003906 23.839844 C 70.332031 25.160156 67.867188 25.859375 63.730469 26.304688 C 62.328125 26.476562 61.09375 26.742188 60.300781 28.503906 L 60.210938 28.675781 Z M 74.46875 28.675781 "/>
</g>
</svg>
